<?xml version="1.0" encoding="UTF-8"?><svg id="Layer_1" xmlns="http://www.w3.org/2000/svg" viewBox="0 0 537.6 84.88"><defs><style>.cls-1{fill:#ee3d2c;}</style></defs><path class="cls-1" d="M74.6,34.99l-35.15,19.79L1.81,33.63l-1.81.98v15.35l39.45,22.12,35.15-19.71v8.13l-35.15,19.79L1.81,59.14,0,60.12v2.63l39.45,22.12,39.38-22.12v-15.35l-1.81-.98-37.56,21.07L4.22,47.78v-8.13l35.23,19.71,39.38-22.12v-15.13l-1.96-1.13-37.41,21L6.04,23.32,39.45,4.59l27.45,15.42,2.42-1.35v-1.88L39.45,0,0,22.12v2.41l39.45,22.12,35.15-19.79v8.13Z"/><path d="M152.52,72.33V4.76h-10.41v25.28c0,.38-.23.68-.6.83-.34.12-.72.03-.98-.23-3.55-4.14-9.05-6.47-15.09-6.47-12.9,0-23.01,10.83-23.01,24.68,0,6.77,2.34,13.02,6.64,17.61,4.23,4.55,10.17,7.11,16.37,7.07,5.96,0,11.46-2.48,15.09-6.77.23-.3.68-.38.98-.3.38.15.61.45.61.83v5.04h10.41ZM127.71,64.13c-8.3,0-14.78-6.7-14.78-15.27s6.48-15.28,14.78-15.28,14.78,6.7,14.78,15.27-6.49,15.27-14.78,15.27M208.19,72.33V25.3h-10.33v4.74c0,.38-.23.68-.61.83-.36.14-.76.02-.98-.3-3.47-4.14-8.9-6.48-15.09-6.48-12.9,0-23.01,10.84-23.01,24.68s10.11,24.68,23.01,24.68c5.96,0,11.46-2.48,15.09-6.84.22-.31.68-.38.98-.31.38.15.61.45.61.83v5.12h10.33v.08ZM183.53,64.13c-8.3,0-14.78-6.7-14.78-15.27s6.48-15.28,14.78-15.28,14.78,6.7,14.78,15.27-6.49,15.27-14.78,15.27M296.67,72.33V25.3h-10.34v4.74c0,.38-.22.68-.6.83s-.75,0-.98-.3c-3.47-4.14-8.9-6.48-15.09-6.48-12.98,0-23.01,10.84-23.01,24.76s10.11,24.68,23.01,24.68c5.96,0,11.46-2.48,15.09-6.85.23-.3.68-.38.98-.3.38.15.6.45.6.83v5.12h10.34ZM272,64.13c-8.3,0-14.78-6.7-14.78-15.27s6.49-15.28,14.78-15.28,14.78,6.7,14.78,15.27-6.49,15.27-14.78,15.27M315.61,66.76c.08,0,.23-.08.3-.08.23,0,.53.15.68.3,3.54,4.14,9.05,6.47,15.09,6.47,12.9,0,23.01-10.83,23.01-24.68,0-6.77-2.34-13.02-6.64-17.61-4.23-4.55-10.16-7.11-16.37-7.07-5.96,0-11.46,2.48-15.09,6.77-.23.3-.6.37-.98.3-.38-.15-.61-.45-.61-.83V4.76h-10.41v67.57h10.41v-4.73c0-.38.23-.68.6-.83M314.55,48.85c0-8.58,6.49-15.27,14.79-15.27s14.78,6.7,14.78,15.27-6.49,15.27-14.78,15.27-14.78-6.77-14.78-15.27M384.78,34.94c.98,0,1.89.08,2.48.23v-10.69c-.57-.1-1.15-.15-1.73-.15-5.43,0-10.41,2.79-13.05,7.23-.23.37-.61.53-.98.37-.38-.09-.66-.43-.68-.83v-5.8h-10.33v47.11h10.41v-20.77c0-10.3,5.28-16.7,13.88-16.7M404.39,25.3h-10.56v47.11h10.56V25.3ZM398.96,4.83c-3.53-.09-6.47,2.7-6.56,6.23s2.7,6.47,6.23,6.56c.11,0,.22,0,.32,0,3.53.13,6.5-2.63,6.62-6.17.13-3.53-2.63-6.5-6.17-6.62-.15,0-.3,0-.46,0M435.32,24.09c-14.48,0-24.97,10.39-24.97,24.76,0,6.99,2.49,13.24,6.94,17.76,4.53,4.51,10.86,7,17.95,7,5.89,0,10.41-1.13,19.01-7.45l-5.96-6.24c-4.23,2.79-8.15,4.14-11.99,4.14-8.75,0-15.31-6.54-15.31-15.2s6.56-15.2,15.31-15.2c4.15,0,7.99,1.36,11.84,4.14l6.63-6.24c-7.77-6.62-14.78-7.45-19.46-7.45M472.58,51.63c.16-.16.38-.24.61-.22h.07c.23,0,.45.15.68.3l16.67,20.62h12.83l-21.57-26.04c-.31-.37-.31-.9.07-1.2l19.84-19.79h-12.75l-17.12,17.16c-.23.22-.6.3-.98.22-.32-.15-.52-.47-.53-.83V4.83h-10.48v67.57h10.41v-18.36c0-.22.07-.53.3-.68l1.96-1.73Z"/><path d="M520.4,73.53c8.52,0,17.2-5.19,17.2-15.05,0-6.47-4.07-10.91-12.37-13.62l-5.66-1.88c-3.84-1.28-5.66-3.09-5.66-5.57,0-2.86,2.57-4.82,6.19-4.82s6.56,2.26,8.52,6.17l8.37-4.51c-3.09-6.32-9.51-10.23-16.9-10.23-9.36,0-16.14,6.02-16.14,14.22,0,6.54,3.92,10.91,11.99,13.47l5.81,1.88c4.07,1.28,5.81,2.93,5.81,5.57,0,3.99-3.7,5.42-6.87,5.42-4.22,0-7.99-2.71-9.8-7.15l-8.52,4.52c2.79,7.15,9.65,11.59,18.03,11.59M237.16,73.08c3.32,0,6.26-.3,7.92-.53v-9.03c-1.73.18-3.47.28-5.2.3-4.22,0-7.47-.75-7.47-9.86v-19.34c0-.53.37-.9.9-.9h10.18v-8.5h-10.18c-.48.02-.89-.36-.9-.84,0-.02,0-.04,0-.06v-13.55h-10.41v13.62c0,.53-.38.9-.91.9h-7.24v8.5h7.24c.53,0,.91.37.91.9v21.9c0,16.48,11.01,16.48,15.16,16.48"/></svg>