<?xml version="1.0" encoding="UTF-8" standalone="no"?>
<svg xmlns="http://www.w3.org/2000/svg" xml:space="preserve" width="850" height="190.215" viewBox="0 0 224.896 50.328">
  <path d="M25.171 0c0 2.83-2.009 5.532-4.788 6.067-7.03 1.769-12.52 7.287-14.292 14.316-.55 2.761-3.276 4.773-6.091 4.774 2.83 0 5.532 2.008 6.067 4.787 1.772 7.03 7.285 12.519 14.316 14.288 2.78.535 4.788 3.266 4.788 6.096 0-2.814 2.01-5.507 4.77-6.059a19.695 19.695 0 0 0 14.32-14.325c.534-2.779 3.237-4.787 6.067-4.787-2.815 0-5.51-2.013-6.06-4.774A19.705 19.705 0 0 0 29.944 6.06c-2.76-.55-4.773-3.245-4.773-6.06zm2.17 9.722a15.614 15.614 0 0 1 7.753 3.461h-7.753zm-4.388.002v3.46h-7.738a15.614 15.614 0 0 1 7.738-3.46zm-11.28 7.65h4.385a11.93 11.93 0 0 0-2.883 7.79 11.93 11.93 0 0 0 2.883 7.79h-4.384a15.614 15.614 0 0 1-2.133-7.79c.015-2.739.75-5.425 2.133-7.79zm13.482 0a7.79 7.79 0 1 1 0 15.58 7.79 7.79 0 0 1 0-15.58zm9.097 0h4.385a15.614 15.614 0 0 1 2.132 7.79 15.614 15.614 0 0 1-2.132 7.79h-4.385a11.93 11.93 0 0 0 2.884-7.79 11.93 11.93 0 0 0-2.884-7.79zm-9.096 3.904a3.886 3.886 0 1 0-.002 7.773 3.886 3.886 0 0 0 .002-7.773zm-9.941 15.867h19.88a15.615 15.615 0 0 1-9.94 3.633 15.612 15.612 0 0 1-9.94-3.633zM165.98 11.909c-14.054-.023-15.114 9.253-15.114 13.258 0 4.005.83 13.37 15.114 13.37 12.602 0 14.31-7.746 14.716-11.144h-7.587s-.075 6.978-7.13 6.978c-7.48 0-7.71-6.973-7.71-9.204 0-2.231.23-9.205 7.71-9.205 6.215 0 6.75 5.566 6.75 5.566h7.561s-.528-9.596-14.31-9.619zM56.73 13.227v23.878h6.977V26.998h13.185v10.107h6.977V13.227h-6.977v8.301H63.708v-8.3zm33.041 0v23.878h6.976V13.227zm9.456 0v5.47h9.48v18.408h6.976V18.697h9.48v-5.47zm32.631 0L121.74 37.105h6.977l2.058-4.856h9.922l2.058 4.856h6.977l-10.12-23.878h-.777zm53.02 0v23.878h6.975V26.998h13.186v10.107h6.977V13.227h-6.977v8.301h-13.186v-8.3zm33.04 0v23.878h6.977V13.227zm-82.184 7.314 3.29 7.764h-6.58z"/>
</svg>
